<svg xmlns="http://www.w3.org/2000/svg" xmlns:xlink="http://www.w3.org/1999/xlink" width="221" height="221" viewBox="0 0 221 221">
  <defs>
    <clipPath id="clip-path">
      <rect id="Rectangle_84" data-name="Rectangle 84" width="220" height="220" fill="none" stroke="rgba(0,0,0,0)" stroke-miterlimit="10" stroke-width="1"/>
    </clipPath>
  </defs>
  <g id="Logo" transform="translate(0.5 0.5)">
    <rect id="Rectangle_81" data-name="Rectangle 81" width="220" height="220" transform="translate(0 0)" fill="#00337b" stroke="rgba(0,0,0,0)" stroke-miterlimit="10" stroke-width="1"/>
    <rect id="Rectangle_82" data-name="Rectangle 82" width="220" height="220" transform="translate(0 0)" fill="#00337b"/>
    <g id="Group_26835" data-name="Group 26835" transform="translate(0 0)">
      <g id="Group_26834" data-name="Group 26834" clip-path="url(#clip-path)">
        <path id="Path_8978" data-name="Path 8978" d="M64.143,17.677H58.564l-1.1,4.231h4.056Zm-9.361,35.2A5.341,5.341,0,0,0,50.4,54.484l2.28,2.271a2.274,2.274,0,0,1,1.922-.8c1.276,0,1.812.4,1.812,1.492v.312H53.977c-2.862,0-4.092,1.67-4.092,3.474a4.975,4.975,0,0,0,.055.69h-.123a.659.659,0,0,1-.738-.735V49.141H45.414V61.452a3.458,3.458,0,0,0,3.734,3.542h1.944v-.831a4.08,4.08,0,0,0,2.727.942A3.322,3.322,0,0,0,56.5,64.014v.98H60.08v-7.77c0-2.917-1.855-4.344-5.3-4.344M56.413,60.5a1.529,1.529,0,0,1-.358,1.2,1.772,1.772,0,0,1-1.454.445c-.8,0-1.206-.469-1.206-1,0-.557.447-.959,1.161-.959h1.857ZM37.405,52.879a5.042,5.042,0,0,0-5.142,4.039V49.141H28.6v4.741a3.53,3.53,0,0,0-2.684-1,4.111,4.111,0,0,0-2.907,1.091c-1.185,1.182-1.117,3.275-1.117,5.034s-.067,3.854,1.117,5.034a4.171,4.171,0,0,0,2.931,1.091,3.557,3.557,0,0,0,2.77-1.115v.98h3.556V61.246c.771,3.208,3.261,3.883,5.478,3.883a5.856,5.856,0,0,0,4.671-1.893l-2.191-2.184a2.989,2.989,0,0,1-2.48,1,1.929,1.929,0,0,1-2.126-1.872h7.2V58.559c0-3.14-1.925-5.68-5.411-5.68M27.076,61.832c-1.362,0-1.521-1.091-1.521-2.828s.159-2.828,1.521-2.828S28.6,57.267,28.6,59s-.156,2.828-1.521,2.828m8.539-4.075a2.082,2.082,0,0,1,.2-.935,1.817,1.817,0,0,1,3.176,0,2.078,2.078,0,0,1,.2.935ZM140.058,17.482h-6.72V22.6h6.72Zm40.967,29.1v13.3H172v-13.3h-3.8V41.248H165.87a1.212,1.212,0,0,1-1.353-1.353V17.729H157.8v13.9c-.4-4.709-3.755-7.014-9.669-7.014-3.729,0-5.776.7-8.03,2.951l4.178,4.181a4.156,4.156,0,0,1,3.522-1.475c2.335,0,3.321.738,3.321,2.744v.574h-4.467c-3.371,0-5.5,1.273-6.6,3.064V25.719h-5.829a6.672,6.672,0,0,0-4.046-1.108,7.638,7.638,0,0,0-5.2,2.05v-1.8h-6.557v7.2a8.268,8.268,0,0,0-2.17-4.616,10.3,10.3,0,0,0-14.176,0A8.053,8.053,0,0,0,100.03,31.4a7.852,7.852,0,0,0-2.335-4.9,7.625,7.625,0,0,0-5.286-1.886,8.584,8.584,0,0,0-6.228,2.335,6.694,6.694,0,0,0-5.368-2.335,7.461,7.461,0,0,0-5.12,2.05v-1.8H69.136v6.807a9.267,9.267,0,0,0-9.462-7.054c-5.466,0-9.424,3.638-9.834,10.137V17.729H42.792L36.238,30.594,29.683,17.729H22.636V46.9h7.17V32.929l4.138,7.213h4.589l4.138-7.213V46.9h7.17V36.956c.418,8.547,5.767,10.192,10.45,10.192a10.712,10.712,0,0,0,8.561-3.484L64.835,39.65a5.486,5.486,0,0,1-4.546,1.843c-2.5,0-3.892-1.639-3.892-3.441H69.136V46.9H72.4c-5.087,1.442-8.042,5.344-8.042,10.31A9.556,9.556,0,0,0,66.74,64.15a11.7,11.7,0,0,0,6.939,3.061l4.174.579a3.866,3.866,0,0,1,2.28.923,2.885,2.885,0,0,1,.68,2.04c0,1.989-1.6,3.1-4.95,3.1-2.766,0-5.92-.63-7.715-2.424l-5.435,5.435c3.494,3.592,7.811,4.563,13.1,4.563,5.377,0,10.082-2.1,12.18-6.028v5.735h8.494V67.452h9.027V81.138h8.491v-7.9a10.675,10.675,0,0,0,2.619,4.313,13.952,13.952,0,0,0,19.316,0c.264-.267.5-.538.73-.815l-1.6,4.4h8.878l1.7-5.144h10.627l1.6,5.144H172V67.452h9.025V81.138h8.268V46.584ZM56.4,33.585a3.843,3.843,0,0,1,.368-1.72,3.317,3.317,0,0,1,5.817,0,3.815,3.815,0,0,1,.37,1.72Zm19.46.123c0-2.54,1.8-3.032,2.7-3.032s2.705.493,2.705,3.032V46.671a22.975,22.975,0,0,0-4.284-.38c-.384,0-.754.022-1.124.043ZM88,64.912a7.384,7.384,0,0,0-1.406-1.925c-1.456-1.456-3.691-2.427-6.795-2.864l-4.174-.584a3.879,3.879,0,0,1-2.376-1.016,2.272,2.272,0,0,1-.68-1.6c0-1.5,1.211-3.2,4.171-3.2,1.507,0,4.368-.147,6.552,2.038L88,51.048Zm5.4-18.328H88v3.268A13.33,13.33,0,0,0,82.31,46.9h5.673V33.708c0-2.54,1.8-3.032,2.705-3.032s2.7.493,2.7,3.032ZM151.283,45.1v1.485h-2.035a6.8,6.8,0,0,0,2.035-1.485m-45.767,1.485v13.3H96.489V46.9h3.623V40.717a7.965,7.965,0,0,0,1.965,3.6,8.692,8.692,0,0,0,3.53,2.263Zm5.452-6.115a2.947,2.947,0,0,1-3.6,0c-.86-.86-.983-2.417-.983-4.589s.123-3.729.983-4.589a2.947,2.947,0,0,1,3.6,0c.863.86.985,2.417.985,4.589s-.123,3.729-.985,4.589m3.039,14.018v-7.9h-1.283a8.693,8.693,0,0,0,3.53-2.263,8.21,8.21,0,0,0,2.17-4.6V46.9h3.482a12.562,12.562,0,0,0-5.279,3.275,10.667,10.667,0,0,0-2.619,4.311m15.675,17.819a4.494,4.494,0,0,1-6.795,0c-.776-1.019-1.261-2.136-1.261-8.443s.485-7.475,1.261-8.5a4.589,4.589,0,0,1,6.795,0c.776,1.021,1.261,2.187,1.261,8.5s-.485,7.424-1.261,8.443m9.606-2.766c.168-1.814.147-3.722.147-5.678,0-5.195.147-10.048-3.494-13.686a12.667,12.667,0,0,0-9.657-3.885c-.4,0-.769.024-1.141.048V33.708a2.706,2.706,0,0,1,2.7-3.032,3.12,3.12,0,0,1,2.42,1.149l3.071-3.124V46.9h6.72V43.749a6.1,6.1,0,0,0,1.024,1.391,7.342,7.342,0,0,0,5.286,1.968,9.154,9.154,0,0,0,1.1-.067Zm6.3-29.727c0-1.024.819-1.761,2.129-1.761h3.4v.574a2.806,2.806,0,0,1-.656,2.211,3.236,3.236,0,0,1-2.665.819c-1.473,0-2.211-.86-2.211-1.843m2.436,29.095,3.1-9.222,2.915,9.222ZM163.506,72.2l-9.2-25.3h3.532V41.1a6.2,6.2,0,0,0,5.668,5.731Z" transform="translate(30.703 24.522)" fill="#fff" stroke="rgba(0,0,0,0)" stroke-miterlimit="10" stroke-width="1"/>
        <path id="Path_8979" data-name="Path 8979" d="M47.693,55.837V50.866L46.22,53.432H44.584l-1.473-2.566v4.971H40.557V45.457h2.511L45.4,50.034l2.333-4.577h2.511v10.38Z" transform="translate(56.891 63.764)" fill="#fff" stroke="rgba(0,0,0,0)" stroke-miterlimit="10" stroke-width="1"/>
        <path id="Path_8980" data-name="Path 8980" d="M49.582,54.356v-.642a2.665,2.665,0,0,1-1.824.728,2.422,2.422,0,0,1-1.766-.67,2.877,2.877,0,0,1-.788-2.244V46.513H47.6v4.693a.97.97,0,1,0,1.927,0V46.513h2.393v7.843Z" transform="translate(63.41 65.245)" fill="#fff" stroke="rgba(0,0,0,0)" stroke-miterlimit="10" stroke-width="1"/>
        <path id="Path_8981" data-name="Path 8981" d="M51.68,54.495a4.275,4.275,0,0,1-3.414-1.136l1.545-1.545a2.566,2.566,0,0,0,1.913.654c.351,0,1.021-.1,1.021-.509,0-.219-.1-.452-.567-.495l-1.213-.118c-1.358-.13-2.275-.742-2.275-2.273,0-1.735,1.559-2.595,3.121-2.595a4.085,4.085,0,0,1,3.095.963l-1.473,1.47a2.356,2.356,0,0,0-1.663-.466c-.586,0-.776.276-.776.452,0,.089-.029.38.512.437l1.211.118a2.293,2.293,0,0,1,2.364,2.391c0,1.85-1.576,2.653-3.4,2.653" transform="translate(67.705 65.195)" fill="#fff" stroke="rgba(0,0,0,0)" stroke-miterlimit="10" stroke-width="1"/>
        <path id="Path_8982" data-name="Path 8982" d="M53.677,52.722a1.259,1.259,0,0,0,1.386,1.225,1.964,1.964,0,0,0,1.619-.656l1.43,1.43a3.822,3.822,0,0,1-3.049,1.237c-1.737,0-3.736-.627-3.736-4.008,0-2.566,1.458-4.01,3.518-4.01a3.432,3.432,0,0,1,3.53,3.717v1.064Zm2.2-2.2a1.184,1.184,0,0,0-2.074,0,1.381,1.381,0,0,0-.13.613h2.335a1.353,1.353,0,0,0-.132-.613m-.38-3.542H54.057l.411-1.547h2.071Z" transform="translate(71.999 63.729)" fill="#fff" stroke="rgba(0,0,0,0)" stroke-miterlimit="10" stroke-width="1"/>
        <path id="Path_8983" data-name="Path 8983" d="M56.9,51.257a1.258,1.258,0,0,0,1.384,1.225,1.962,1.962,0,0,0,1.622-.656l1.43,1.427a3.818,3.818,0,0,1-3.051,1.24c-1.735,0-3.734-.627-3.734-4.008,0-2.566,1.458-4.01,3.518-4.01A3.434,3.434,0,0,1,61.6,50.193v1.064Zm2.2-2.2a1.184,1.184,0,0,0-2.074,0,1.381,1.381,0,0,0-.13.613h2.333a1.381,1.381,0,0,0-.13-.613" transform="translate(76.522 65.193)" fill="#fff" stroke="rgba(0,0,0,0)" stroke-miterlimit="10" stroke-width="1"/>
        <path id="Path_8984" data-name="Path 8984" d="M57.893,53.143V49.227h2.54v2.052Z" transform="translate(81.208 69.052)" fill="#fff" stroke="rgba(0,0,0,0)" stroke-miterlimit="10" stroke-width="1"/>
        <path id="Path_8985" data-name="Path 8985" d="M44.358,60.875A3.868,3.868,0,0,1,41.47,59.71c-1.1-1.093-1.052-2.552-1.052-4.111s-.043-3.018,1.052-4.111a3.868,3.868,0,0,1,2.888-1.165,3.758,3.758,0,0,1,3.94,3.383H45.7a1.289,1.289,0,0,0-1.329-1.11,1.25,1.25,0,0,0-1.007.437c-.233.308-.394.673-.394,2.566s.161,2.259.394,2.564a1.237,1.237,0,0,0,1.007.44A1.289,1.289,0,0,0,45.7,57.494h2.6a3.758,3.758,0,0,1-3.94,3.381" transform="translate(56.695 70.588)" fill="#fff" stroke="rgba(0,0,0,0)" stroke-miterlimit="10" stroke-width="1"/>
        <path id="Path_8986" data-name="Path 8986" d="M46.23,56.157a1.261,1.261,0,0,0,1.386,1.225,1.954,1.954,0,0,0,1.619-.656l1.43,1.427a3.816,3.816,0,0,1-3.049,1.24c-1.737,0-3.736-.627-3.736-4.008,0-2.566,1.461-4.008,3.518-4.008a3.432,3.432,0,0,1,3.532,3.715v1.064Zm2.2-2.2a1.186,1.186,0,0,0-2.074,0,1.381,1.381,0,0,0-.13.613h2.335a1.353,1.353,0,0,0-.132-.613" transform="translate(61.552 72.07)" fill="#fff" stroke="rgba(0,0,0,0)" stroke-miterlimit="10" stroke-width="1"/>
        <path id="Path_8987" data-name="Path 8987" d="M51.571,59.307V54.614a.97.97,0,1,0-1.927,0v4.693H47.251V51.465h2.335v.642a2.661,2.661,0,0,1,1.824-.728,2.422,2.422,0,0,1,1.766.67,2.868,2.868,0,0,1,.788,2.244v5.015Z" transform="translate(66.281 72.07)" fill="#fff" stroke="rgba(0,0,0,0)" stroke-miterlimit="10" stroke-width="1"/>
        <path id="Path_8988" data-name="Path 8988" d="M53.525,60.389a2.26,2.26,0,0,1-2.436-2.319V54.689h-.716V52.854h.716V50.607h2.393v2.247h1.24v1.836h-1.24V57.9a.431.431,0,0,0,.481.481h.759v2.011Z" transform="translate(70.66 70.988)" fill="#fff" stroke="rgba(0,0,0,0)" stroke-miterlimit="10" stroke-width="1"/>
        <path id="Path_8989" data-name="Path 8989" d="M56.85,53.942a1.109,1.109,0,0,0-.86-.408.963.963,0,0,0-.963,1.079v4.695H52.633V51.465h2.333v.642a2.724,2.724,0,0,1,1.855-.728,2.324,2.324,0,0,1,1.838.728Z" transform="translate(73.831 72.07)" fill="#fff" stroke="rgba(0,0,0,0)" stroke-miterlimit="10" stroke-width="1"/>
        <path id="Path_8990" data-name="Path 8990" d="M57.371,56.157a1.259,1.259,0,0,0,1.386,1.225,1.954,1.954,0,0,0,1.619-.656l1.43,1.427a3.816,3.816,0,0,1-3.049,1.24c-1.737,0-3.736-.627-3.736-4.008,0-2.566,1.458-4.008,3.518-4.008a3.432,3.432,0,0,1,3.532,3.715v1.064Zm2.2-2.2a1.184,1.184,0,0,0-2.071,0,1.353,1.353,0,0,0-.132.613h2.335a1.353,1.353,0,0,0-.132-.613" transform="translate(77.18 72.07)" fill="#fff" stroke="rgba(0,0,0,0)" stroke-miterlimit="10" stroke-width="1"/>
        <path id="Path_8991" data-name="Path 8991" d="M44.831,65.636v-.642a2.314,2.314,0,0,1-1.809.73,2.721,2.721,0,0,1-1.913-.716c-.771-.771-.728-2.143-.728-3.294s-.043-2.52.728-3.292a2.671,2.671,0,0,1,1.9-.716,2.3,2.3,0,0,1,1.752.656v-3.1h2.393V65.636Zm-1.064-5.771c-.891,0-.992.714-.992,1.85s.1,1.853.992,1.853.992-.714.992-1.853-.1-1.85-.992-1.85" transform="translate(56.644 77.514)" fill="#fff" stroke="rgba(0,0,0,0)" stroke-miterlimit="10" stroke-width="1"/>
        <path id="Path_8992" data-name="Path 8992" d="M45.987,61.059a1.259,1.259,0,0,0,1.386,1.225,1.954,1.954,0,0,0,1.619-.656l1.43,1.427a3.816,3.816,0,0,1-3.049,1.24c-1.737,0-3.736-.627-3.736-4.008,0-2.566,1.458-4.01,3.515-4.01A3.433,3.433,0,0,1,50.684,60v1.064Zm2.2-2.2a1.186,1.186,0,0,0-2.074,0,1.381,1.381,0,0,0-.13.613h2.335a1.353,1.353,0,0,0-.132-.613" transform="translate(61.212 78.943)" fill="#fff" stroke="rgba(0,0,0,0)" stroke-miterlimit="10" stroke-width="1"/>
        <path id="Path_8993" data-name="Path 8993" d="M52.657,65.636v-.642a2.318,2.318,0,0,1-1.809.73,2.723,2.723,0,0,1-1.915-.716c-.771-.771-.726-2.143-.726-3.294s-.046-2.52.726-3.292a2.667,2.667,0,0,1,1.9-.716,2.3,2.3,0,0,1,1.752.656v-3.1h2.393V65.636Zm-1.064-5.771c-.891,0-.995.714-.995,1.85s.1,1.853.995,1.853.99-.714.99-1.853-.1-1.85-.99-1.85" transform="translate(67.622 77.514)" fill="#fff" stroke="rgba(0,0,0,0)" stroke-miterlimit="10" stroke-width="1"/>
        <path id="Path_8994" data-name="Path 8994" d="M57.4,63.289a3.67,3.67,0,0,1-5.051,0,3.864,3.864,0,0,1-.86-3,3.887,3.887,0,0,1,.86-3,3.671,3.671,0,0,1,5.051,0,3.886,3.886,0,0,1,.86,3,3.864,3.864,0,0,1-.86,3M55.52,58.654a1.05,1.05,0,0,0-1.283,0c-.308.308-.351.86-.351,1.634s.043,1.326.351,1.631a1.05,1.05,0,0,0,1.283,0c.308-.305.351-.86.351-1.631s-.043-1.326-.351-1.634" transform="translate(72.231 78.943)" fill="#fff" stroke="rgba(0,0,0,0)" stroke-miterlimit="10" stroke-width="1"/>
        <path id="Path_8995" data-name="Path 8995" d="M58.164,64.295c-1.358,0-3.532-.584-3.532-4.008s2.174-4.008,3.532-4.008a3.492,3.492,0,0,1,2.583,1L59.128,58.9a1.274,1.274,0,0,0-.963-.469.976.976,0,0,0-.745.308,3.226,3.226,0,0,0,0,3.09.975.975,0,0,0,.745.305,1.279,1.279,0,0,0,.963-.466l1.619,1.617a3.494,3.494,0,0,1-2.583,1.007" transform="translate(76.635 78.945)" fill="#fff" stroke="rgba(0,0,0,0)" stroke-miterlimit="10" stroke-width="1"/>
        <path id="Path_8996" data-name="Path 8996" d="M61.841,64.157v-.642a2.66,2.66,0,0,1-1.824.728,2.422,2.422,0,0,1-1.766-.67,2.868,2.868,0,0,1-.788-2.244V56.314h2.393v4.695a.969.969,0,1,0,1.927,0V56.314h2.393v7.843Z" transform="translate(80.606 78.994)" fill="#fff" stroke="rgba(0,0,0,0)" stroke-miterlimit="10" stroke-width="1"/>
        <path id="Path_8997" data-name="Path 8997" d="M69.48,64.207V59.514a.97.97,0,1,0-1.927,0v4.693H65.16V59.514a.97.97,0,1,0-1.927,0v4.693H60.84V56.365h2.335v.642A2.661,2.661,0,0,1,65,56.278a2.391,2.391,0,0,1,1.913.829,3.063,3.063,0,0,1,2.218-.829,2.718,2.718,0,0,1,1.884.67,2.943,2.943,0,0,1,.86,2.244v5.015Z" transform="translate(85.343 78.943)" fill="#fff" stroke="rgba(0,0,0,0)" stroke-miterlimit="10" stroke-width="1"/>
        <path id="Path_8998" data-name="Path 8998" d="M68.186,61.059a1.263,1.263,0,0,0,1.389,1.225,1.954,1.954,0,0,0,1.619-.656l1.43,1.427a3.816,3.816,0,0,1-3.049,1.24c-1.737,0-3.736-.627-3.736-4.008,0-2.566,1.461-4.01,3.518-4.01A3.434,3.434,0,0,1,72.889,60v1.064Zm2.206-2.2a1.186,1.186,0,0,0-2.074,0,1.385,1.385,0,0,0-.132.613h2.338a1.353,1.353,0,0,0-.132-.613" transform="translate(92.355 78.943)" fill="#fff" stroke="rgba(0,0,0,0)" stroke-miterlimit="10" stroke-width="1"/>
        <path id="Path_8999" data-name="Path 8999" d="M73.531,64.207V59.514a.97.97,0,1,0-1.927,0v4.693H69.211V56.365h2.335v.642a2.661,2.661,0,0,1,1.824-.728,2.422,2.422,0,0,1,1.766.67,2.877,2.877,0,0,1,.788,2.244v5.015Z" transform="translate(97.085 78.943)" fill="#fff" stroke="rgba(0,0,0,0)" stroke-miterlimit="10" stroke-width="1"/>
        <path id="Path_9000" data-name="Path 9000" d="M75.487,65.289a2.26,2.26,0,0,1-2.439-2.319V59.589h-.716V57.754h.716V55.507h2.393v2.247h1.24v1.836h-1.24v3.205a.431.431,0,0,0,.481.483h.759v2.011Z" transform="translate(101.463 77.862)" fill="#fff" stroke="rgba(0,0,0,0)" stroke-miterlimit="10" stroke-width="1"/>
        <path id="Path_9001" data-name="Path 9001" d="M78.7,64.207v-.642a2.157,2.157,0,0,1-1.749.716,2.629,2.629,0,0,1-1.884-.7,2.563,2.563,0,0,1-.687-1.838c0-1.18.8-2.273,2.672-2.273h1.591v-.2c0-.714-.351-.978-1.182-.978a1.479,1.479,0,0,0-1.254.526l-1.49-1.487a3.48,3.48,0,0,1,2.862-1.05c2.249,0,3.458.932,3.458,2.842v5.087Zm-.058-3.148H77.43c-.466,0-.759.262-.759.627s.264.656.788.656a1.145,1.145,0,0,0,.949-.293.993.993,0,0,0,.233-.786Z" transform="translate(104.335 78.943)" fill="#fff" stroke="rgba(0,0,0,0)" stroke-miterlimit="10" stroke-width="1"/>
        <path id="Path_9002" data-name="Path 9002" d="M80.605,65.289a2.26,2.26,0,0,1-2.436-2.319V59.589h-.716V57.754h.716V55.507h2.393v2.247H81.8v1.836h-1.24v3.205a.432.432,0,0,0,.481.483H81.8v2.011Z" transform="translate(108.647 77.862)" fill="#fff" stroke="rgba(0,0,0,0)" stroke-miterlimit="10" stroke-width="1"/>
        <path id="Path_9003" data-name="Path 9003" d="M79.712,55.222h2.393v1.824H79.712Zm0,2.931h2.393v7.535H79.712Z" transform="translate(111.816 77.462)" fill="#fff" stroke="rgba(0,0,0,0)" stroke-miterlimit="10" stroke-width="1"/>
        <path id="Path_9004" data-name="Path 9004" d="M87.088,63.289a3.67,3.67,0,0,1-5.051,0c-.658-.714-.86-1.456-.86-3a3.877,3.877,0,0,1,.86-3,3.671,3.671,0,0,1,5.051,0,3.886,3.886,0,0,1,.86,3,3.864,3.864,0,0,1-.86,3M85.2,58.654a1.054,1.054,0,0,0-1.285,0c-.305.308-.348.86-.348,1.634s.043,1.326.348,1.631a1.054,1.054,0,0,0,1.285,0,2.348,2.348,0,0,0,.351-1.631,2.356,2.356,0,0,0-.351-1.634" transform="translate(113.871 78.943)" fill="#fff" stroke="rgba(0,0,0,0)" stroke-miterlimit="10" stroke-width="1"/>
        <path id="Path_9005" data-name="Path 9005" d="M88.782,64.207V59.514a.97.97,0,1,0-1.927,0v4.693H84.462V56.365H86.8v.642a2.661,2.661,0,0,1,1.824-.728,2.422,2.422,0,0,1,1.766.67,2.868,2.868,0,0,1,.788,2.244v5.015Z" transform="translate(118.479 78.943)" fill="#fff" stroke="rgba(0,0,0,0)" stroke-miterlimit="10" stroke-width="1"/>
        <path id="Path_9006" data-name="Path 9006" d="M51.314,61.179" transform="translate(71.98 85.818)" fill="#fff" stroke="rgba(0,0,0,0)" stroke-miterlimit="10" stroke-width="1"/>
        <rect id="Rectangle_83" data-name="Rectangle 83" width="3.306" height="4.041" transform="translate(179.526 69.096)" fill="#fff" stroke="rgba(0,0,0,0)" stroke-miterlimit="10" stroke-width="1"/>
      </g>
    </g>
  </g>
</svg>
